HIERARCHY
ROOT Hips
{
	OFFSET 0.000000 0.000000 0.000000
	CHANNELS 6 Xposition Yposition Zposition Zrotation Yrotation Xrotation 
	JOINT LHipJoint
	{
		OFFSET 0.000000 0.000000 0.000000
		CHANNELS 3 Zrotation Yrotation Xrotation
		JOINT LeftUpLeg
		{
			OFFSET 1.363060 -1.794630 0.839290
			CHANNELS 3 Zrotation Yrotation Xrotation
			JOINT LeftLeg
			{
				OFFSET 2.448110 -6.726130 0.000000
				CHANNELS 3 Zrotation Yrotation Xrotation
				JOINT LeftFoot
				{
					OFFSET 2.562200 -7.039590 0.000000
					CHANNELS 3 Zrotation Yrotation Xrotation
					JOINT LeftToeBase
					{
						OFFSET 0.157640 -0.433110 2.322550
						CHANNELS 3 Zrotation Yrotation Xrotation
						End Site
						{
							OFFSET 0.000000 0.000000 0.000000
						}
					}
				}
			}
		}
	}
	JOINT RHipJoint
	{
		OFFSET 0.000000 0.000000 0.000000
		CHANNELS 3 Zrotation Yrotation Xrotation
		JOINT RightUpLeg
		{
			OFFSET -1.305520 -1.794630 0.839290
			CHANNELS 3 Zrotation Yrotation Xrotation
			JOINT RightLeg
			{
				OFFSET -2.542530 -6.985550 0.000000
				CHANNELS 3 Zrotation Yrotation Xrotation
				JOINT RightFoot
				{
					OFFSET -2.568260 -7.056230 0.000000
					CHANNELS 3 Zrotation Yrotation Xrotation
					JOINT RightToeBase
					{
						OFFSET -0.164730 -0.452590 2.363150
						CHANNELS 3 Zrotation Yrotation Xrotation
						End Site
						{
							OFFSET 0.000000 0.000000 0.000000
						}
					}
				}
			}
		}
	}
	JOINT LowerBack
	{
		OFFSET 0.000000 0.000000 0.000000
		CHANNELS 3 Zrotation Yrotation Xrotation
		JOINT Spine
		{
			OFFSET 0.028270 2.035590 -0.193380
			CHANNELS 3 Zrotation Yrotation Xrotation
			JOINT Spine1
			{
				OFFSET 0.056720 2.048850 -0.042750
				CHANNELS 3 Zrotation Yrotation Xrotation
				JOINT Neck
				{
					OFFSET 0.000000 0.000000 0.000000
					CHANNELS 3 Zrotation Yrotation Xrotation
					JOINT Neck1
					{
						OFFSET -0.054170 1.746240 0.172020
						CHANNELS 3 Zrotation Yrotation Xrotation
						JOINT Head
						{
							OFFSET 0.104070 1.761360 -0.123970
							CHANNELS 3 Zrotation Yrotation Xrotation
							End Site
							{
								OFFSET 0.000000 0.000000 0.000000
							}
						}
					}
				}
				JOINT LeftShoulder
				{
					OFFSET 0.000000 0.000000 0.000000
					CHANNELS 3 Zrotation Yrotation Xrotation
					JOINT LeftArm
					{
						OFFSET 3.362410 1.200890 -0.311210
						CHANNELS 3 Zrotation Yrotation Xrotation
						JOINT LeftForeArm
						{
							OFFSET 4.983000 -0.000000 -0.000000
							CHANNELS 3 Zrotation Yrotation Xrotation
							JOINT LeftHand
							{
								OFFSET 3.483560 -0.000000 -0.000000
								CHANNELS 3 Zrotation Yrotation Xrotation
								JOINT LeftFingerBase
								{
									OFFSET 0.000000 0.000000 0.000000
									CHANNELS 3 Zrotation Yrotation Xrotation
									JOINT LeftHandIndex1
									{
										OFFSET 0.715260 -0.000000 -0.000000
										CHANNELS 3 Zrotation Yrotation Xrotation
										End Site
										{
											OFFSET 0.000000 0.000000 0.000000
										}
									}
								}
								JOINT LThumb
								{
									OFFSET 0.000000 0.000000 0.000000
									CHANNELS 3 Zrotation Yrotation Xrotation
									End Site
									{
										OFFSET 0.000000 0.000000 0.000000
									}
								}
							}
						}
					}
				}
				JOINT RightShoulder
				{
					OFFSET 0.000000 0.000000 0.000000
					CHANNELS 3 Zrotation Yrotation Xrotation
					JOINT RightArm
					{
						OFFSET -3.136600 1.374050 -0.404650
						CHANNELS 3 Zrotation Yrotation Xrotation
						JOINT RightForeArm
						{
							OFFSET -5.241900 -0.000000 -0.000000
							CHANNELS 3 Zrotation Yrotation Xrotation
							JOINT RightHand
							{
								OFFSET -3.444170 -0.000000 -0.000000
								CHANNELS 3 Zrotation Yrotation Xrotation
								JOINT RightFingerBase
								{
									OFFSET 0.000000 0.000000 0.000000
									CHANNELS 3 Zrotation Yrotation Xrotation
									JOINT RightHandIndex1
									{
										OFFSET -0.622530 -0.000000 -0.000000
										CHANNELS 3 Zrotation Yrotation Xrotation
										End Site
										{
											OFFSET 0.000000 0.000000 0.000000
										}
									}
								}
								JOINT RThumb
								{
									OFFSET 0.000000 0.000000 0.000000
									CHANNELS 3 Zrotation Yrotation Xrotation
									End Site
									{
										OFFSET 0.000000 0.000000 0.000000
									}
								}
							}
						}
					}
				}
			}
		}
	}
}
MOTION
Frames: 4
Frame Time: 0.008333
5.830321 16.361234 -2.873688 -163.615217 72.613997 -147.565310 -12.310410 0.129791 1.086971 -9.411538 -3.097997 -43.410432 1.058666 4.124322 75.071144 4.072611 21.078779 -26.007728 -6.473300 -0.000000 -0.730500 8.037331 -1.765275 1.204571 10.005796 3.193394 -22.442592 2.225799 -1.668342 37.098695 -1.686620 -2.925235 -20.505657 1.150900 -0.000000 -56.344900 2.203129 -1.391510 -1.930870 -0.343697 -1.634789 -3.608214 -7.253733 -1.559338 -1.977841 11.561414 -11.148555 -8.764257 -3.519750 -0.258737 -0.316894 0.000000 0.000000 0.000000 2.283281 10.003754 -0.218255 -75.989006 13.509904 27.954086 179.883469 -77.730908 179.942034 9.103091 -1.283484 -0.134824 -0.132886 0.425045 0.000000 0.000000 0.000000 0.000000 0.000000 0.000000 0.000000 13.502380 -4.430450 -0.283425 73.165072 4.718050 35.697908 179.657679 82.971772 179.968615 -5.891266 9.152441 -0.513011 0.148679 -0.605529 -0.000000 0.000000 0.000000 0.000000 0.000000 0.000000 0.000000 
6.055615 16.451043 -2.954928 -165.399832 72.139586 -149.209205 -12.006355 0.119765 1.362072 -9.899181 -3.479914 -44.039422 0.806943 3.904750 72.292383 4.125486 20.849388 -25.943239 -6.383101 -0.000000 -0.973400 8.188934 -1.847748 1.192776 9.397809 2.478617 -20.844135 2.214286 -1.506292 35.146358 -1.530415 -2.676036 -18.953414 0.945800 -0.000001 -57.764500 1.677391 -1.223374 -2.252464 -0.463747 -1.441096 -3.665953 -7.313272 -1.363185 -1.953042 11.527027 -11.173776 -8.727092 -3.471656 -0.256413 -0.300167 0.000000 0.000000 0.000000 2.498463 10.256504 -0.282985 -75.256858 14.051009 28.532029 179.925287 -76.707814 179.949704 7.839326 -1.643345 -0.141200 -0.102408 0.434123 -0.000000 0.000000 0.000000 0.000000 0.000000 0.000000 0.000000 13.085629 -4.269946 -0.342634 73.976537 4.984718 35.804537 179.623057 82.183503 179.970676 -5.453450 9.362690 -0.486050 0.140117 -0.624636 -0.000000 0.000000 0.000000 0.000000 0.000000 0.000000 0.000000 
6.282074 16.548652 -3.042628 -166.955493 71.649453 -150.623532 -11.706991 0.119965 1.644379 -10.318376 -3.847786 -44.505650 0.550389 3.662283 69.152487 4.192902 20.667958 -25.791667 -6.271200 0.000000 -1.326299 8.329834 -1.947675 1.183595 8.820726 1.786675 -19.236505 2.186140 -1.352092 33.095564 -1.351310 -2.419934 -17.001517 0.715900 0.000000 -59.633200 1.204689 -1.057338 -2.583105 -0.574560 -1.252951 -3.725294 -7.374554 -1.172357 -1.924602 11.502502 -11.218524 -8.701352 -3.423132 -0.253939 -0.286523 0.000000 0.000000 0.000000 2.674644 10.521481 -0.349311 -74.522227 14.545880 29.080547 179.967341 -75.763038 179.956628 6.690419 -1.994438 -0.141282 -0.073707 0.442657 -0.000000 0.000000 0.000000 0.000000 0.000000 0.000000 0.000000 12.687881 -4.138437 -0.403686 74.711388 5.205429 35.874294 179.590499 81.432128 179.972417 -5.092834 9.516738 -0.461686 0.133150 -0.641671 -0.000000 0.000000 0.000000 0.000000 0.000000 0.000000 0.000000 
6.507144 16.653541 -3.138460 -168.150457 71.120652 -151.729937 -11.433662 0.124641 1.915859 -10.597643 -4.173414 -44.742595 0.291236 3.401585 65.652916 4.261132 20.475849 -25.563722 -6.124800 0.000000 -1.768300 8.437023 -2.069618 1.151478 8.354007 1.121832 -17.528108 2.144399 -1.208712 30.904769 -1.159361 -2.205470 -14.590510 0.470400 -0.000000 -61.962399 0.854438 -0.895959 -2.870323 -0.662240 -1.076372 -3.776962 -7.433199 -0.992387 -1.896930 11.471873 -11.264788 -8.681304 -3.376947 -0.251470 -0.275010 0.000000 0.000000 0.000000 2.768413 10.801707 -0.412354 -73.803884 14.983072 29.580270 -179.992761 -74.922434 179.962424 5.720273 -2.312140 -0.136552 -0.048973 0.450088 0.000000 0.000000 0.000000 0.000000 0.000000 0.000000 0.000000 12.306627 -4.023614 -0.465567 75.337740 5.405142 35.914976 179.560080 80.733952 179.973769 -4.815350 9.619234 -0.441524 0.127933 -0.656186 -0.000000 0.000000 0.000000 0.000000 0.000000 0.000000 0.000000 
